<mxfile host="app.diagrams.net" agent="Mozilla/5.0 (Windows NT 10.0; Win64; x64) AppleWebKit/537.36 (KHTML, like Gecko) Chrome/131.0.0.0 Safari/537.36" version="25.0.0">
  <diagram name="Page-1" id="B2ERzvXz4oqF9KyReBtL">
    <mxGraphModel dx="-774" dy="444" grid="1" gridSize="10" guides="1" tooltips="1" connect="1" arrows="1" fold="1" page="1" pageScale="1" pageWidth="827" pageHeight="1169" math="0" shadow="0">
      <root>
        <mxCell id="0" />
        <mxCell id="1" parent="0" />
        <mxCell id="kRkp4OT0FkF3uWfnRjnD-2" value="" style="rounded=0;whiteSpace=wrap;html=1;" vertex="1" parent="1">
          <mxGeometry x="1870" y="120" width="190" height="510" as="geometry" />
        </mxCell>
        <mxCell id="kRkp4OT0FkF3uWfnRjnD-3" value="Class" style="ellipse;whiteSpace=wrap;html=1;" vertex="1" parent="1">
          <mxGeometry x="1930" y="160" width="70" height="50" as="geometry" />
        </mxCell>
        <mxCell id="kRkp4OT0FkF3uWfnRjnD-4" value="Subject" style="ellipse;whiteSpace=wrap;html=1;" vertex="1" parent="1">
          <mxGeometry x="1930" y="250" width="70" height="50" as="geometry" />
        </mxCell>
        <mxCell id="kRkp4OT0FkF3uWfnRjnD-5" value="Result" style="ellipse;whiteSpace=wrap;html=1;" vertex="1" parent="1">
          <mxGeometry x="1930" y="340" width="70" height="50" as="geometry" />
        </mxCell>
        <mxCell id="kRkp4OT0FkF3uWfnRjnD-6" value="Tuition fees" style="ellipse;whiteSpace=wrap;html=1;" vertex="1" parent="1">
          <mxGeometry x="1930" y="530" width="70" height="50" as="geometry" />
        </mxCell>
        <mxCell id="kRkp4OT0FkF3uWfnRjnD-7" value="Attendance" style="ellipse;whiteSpace=wrap;html=1;" vertex="1" parent="1">
          <mxGeometry x="1930" y="434" width="70" height="50" as="geometry" />
        </mxCell>
        <mxCell id="kRkp4OT0FkF3uWfnRjnD-8" value="Student" style="shape=umlActor;verticalLabelPosition=bottom;verticalAlign=top;html=1;outlineConnect=0;" vertex="1" parent="1">
          <mxGeometry x="1750" y="210" width="30" height="60" as="geometry" />
        </mxCell>
        <mxCell id="kRkp4OT0FkF3uWfnRjnD-9" value="Teacher" style="shape=umlActor;verticalLabelPosition=bottom;verticalAlign=top;html=1;outlineConnect=0;" vertex="1" parent="1">
          <mxGeometry x="1750" y="450" width="30" height="60" as="geometry" />
        </mxCell>
        <mxCell id="kRkp4OT0FkF3uWfnRjnD-10" value="Moderator" style="shape=umlActor;verticalLabelPosition=bottom;verticalAlign=top;html=1;outlineConnect=0;" vertex="1" parent="1">
          <mxGeometry x="2142" y="353" width="30" height="60" as="geometry" />
        </mxCell>
        <mxCell id="kRkp4OT0FkF3uWfnRjnD-13" value="Admin" style="shape=umlActor;verticalLabelPosition=bottom;verticalAlign=top;html=1;outlineConnect=0;" vertex="1" parent="1">
          <mxGeometry x="2142" y="193" width="30" height="60" as="geometry" />
        </mxCell>
        <mxCell id="kRkp4OT0FkF3uWfnRjnD-14" value="Accountant" style="shape=umlActor;verticalLabelPosition=bottom;verticalAlign=top;html=1;outlineConnect=0;" vertex="1" parent="1">
          <mxGeometry x="2142" y="513" width="30" height="60" as="geometry" />
        </mxCell>
        <mxCell id="kRkp4OT0FkF3uWfnRjnD-15" value="" style="endArrow=none;html=1;rounded=0;exitX=1;exitY=0.5;exitDx=0;exitDy=0;entryX=0.5;entryY=0.5;entryDx=0;entryDy=0;entryPerimeter=0;" edge="1" parent="1" source="kRkp4OT0FkF3uWfnRjnD-6" target="kRkp4OT0FkF3uWfnRjnD-14">
          <mxGeometry width="50" height="50" relative="1" as="geometry">
            <mxPoint x="2160" y="544" as="sourcePoint" />
            <mxPoint x="2210" y="494" as="targetPoint" />
            <Array as="points" />
          </mxGeometry>
        </mxCell>
        <mxCell id="kRkp4OT0FkF3uWfnRjnD-20" value="" style="endArrow=none;html=1;rounded=0;entryX=0.5;entryY=0.5;entryDx=0;entryDy=0;entryPerimeter=0;exitX=1;exitY=0.5;exitDx=0;exitDy=0;" edge="1" parent="1" source="kRkp4OT0FkF3uWfnRjnD-7" target="kRkp4OT0FkF3uWfnRjnD-10">
          <mxGeometry width="50" height="50" relative="1" as="geometry">
            <mxPoint x="1990" y="430" as="sourcePoint" />
            <mxPoint x="2040" y="380" as="targetPoint" />
            <Array as="points">
              <mxPoint x="2080" y="450" />
            </Array>
          </mxGeometry>
        </mxCell>
        <mxCell id="kRkp4OT0FkF3uWfnRjnD-21" value="" style="endArrow=none;html=1;rounded=0;entryX=0.5;entryY=0.5;entryDx=0;entryDy=0;entryPerimeter=0;exitX=1;exitY=0;exitDx=0;exitDy=0;" edge="1" parent="1" source="kRkp4OT0FkF3uWfnRjnD-7" target="kRkp4OT0FkF3uWfnRjnD-13">
          <mxGeometry width="50" height="50" relative="1" as="geometry">
            <mxPoint x="2000" y="450" as="sourcePoint" />
            <mxPoint x="2040" y="320" as="targetPoint" />
            <Array as="points">
              <mxPoint x="2080" y="400" />
              <mxPoint x="2080" y="223" />
            </Array>
          </mxGeometry>
        </mxCell>
        <mxCell id="kRkp4OT0FkF3uWfnRjnD-22" value="" style="endArrow=none;html=1;rounded=0;exitX=0;exitY=0;exitDx=0;exitDy=0;entryX=0;entryY=1;entryDx=0;entryDy=0;" edge="1" parent="1" source="kRkp4OT0FkF3uWfnRjnD-7" target="kRkp4OT0FkF3uWfnRjnD-3">
          <mxGeometry width="50" height="50" relative="1" as="geometry">
            <mxPoint x="1990" y="370" as="sourcePoint" />
            <mxPoint x="2040" y="320" as="targetPoint" />
            <Array as="points">
              <mxPoint x="1910" y="420" />
              <mxPoint x="1910" y="220" />
            </Array>
          </mxGeometry>
        </mxCell>
        <mxCell id="kRkp4OT0FkF3uWfnRjnD-23" value="" style="endArrow=none;html=1;rounded=0;exitX=0.5;exitY=0.5;exitDx=0;exitDy=0;exitPerimeter=0;entryX=0;entryY=0.5;entryDx=0;entryDy=0;" edge="1" parent="1" source="kRkp4OT0FkF3uWfnRjnD-9" target="kRkp4OT0FkF3uWfnRjnD-7">
          <mxGeometry width="50" height="50" relative="1" as="geometry">
            <mxPoint x="1990" y="490" as="sourcePoint" />
            <mxPoint x="2040" y="440" as="targetPoint" />
          </mxGeometry>
        </mxCell>
        <mxCell id="kRkp4OT0FkF3uWfnRjnD-24" value="" style="endArrow=none;html=1;rounded=0;entryX=0.5;entryY=0.5;entryDx=0;entryDy=0;entryPerimeter=0;exitX=1;exitY=0;exitDx=0;exitDy=0;" edge="1" parent="1" source="kRkp4OT0FkF3uWfnRjnD-6" target="kRkp4OT0FkF3uWfnRjnD-13">
          <mxGeometry width="50" height="50" relative="1" as="geometry">
            <mxPoint x="2000" y="550" as="sourcePoint" />
            <mxPoint x="2190" y="218.78787878787878" as="targetPoint" />
            <Array as="points">
              <mxPoint x="2100" y="470" />
              <mxPoint x="2100" y="240" />
            </Array>
          </mxGeometry>
        </mxCell>
        <mxCell id="kRkp4OT0FkF3uWfnRjnD-25" value="" style="endArrow=none;html=1;rounded=0;exitX=0.5;exitY=1;exitDx=0;exitDy=0;entryX=0.5;entryY=0;entryDx=0;entryDy=0;" edge="1" parent="1" source="kRkp4OT0FkF3uWfnRjnD-3" target="kRkp4OT0FkF3uWfnRjnD-4">
          <mxGeometry width="50" height="50" relative="1" as="geometry">
            <mxPoint x="1990" y="310" as="sourcePoint" />
            <mxPoint x="2040" y="260" as="targetPoint" />
          </mxGeometry>
        </mxCell>
        <mxCell id="kRkp4OT0FkF3uWfnRjnD-26" value="" style="endArrow=none;html=1;rounded=0;exitX=0.5;exitY=0.5;exitDx=0;exitDy=0;exitPerimeter=0;entryX=0;entryY=0.5;entryDx=0;entryDy=0;" edge="1" parent="1" source="kRkp4OT0FkF3uWfnRjnD-8" target="kRkp4OT0FkF3uWfnRjnD-3">
          <mxGeometry width="50" height="50" relative="1" as="geometry">
            <mxPoint x="1990" y="310" as="sourcePoint" />
            <mxPoint x="2040" y="260" as="targetPoint" />
          </mxGeometry>
        </mxCell>
        <mxCell id="kRkp4OT0FkF3uWfnRjnD-27" value="" style="endArrow=none;html=1;rounded=0;exitX=0.5;exitY=0.5;exitDx=0;exitDy=0;exitPerimeter=0;entryX=0.018;entryY=0.639;entryDx=0;entryDy=0;entryPerimeter=0;" edge="1" parent="1" source="kRkp4OT0FkF3uWfnRjnD-9" target="kRkp4OT0FkF3uWfnRjnD-3">
          <mxGeometry width="50" height="50" relative="1" as="geometry">
            <mxPoint x="1990" y="380" as="sourcePoint" />
            <mxPoint x="1910" y="200" as="targetPoint" />
            <Array as="points">
              <mxPoint x="1840" y="450" />
              <mxPoint x="1840" y="240" />
            </Array>
          </mxGeometry>
        </mxCell>
        <mxCell id="kRkp4OT0FkF3uWfnRjnD-28" value="" style="endArrow=none;html=1;rounded=0;exitX=0.5;exitY=0;exitDx=0;exitDy=0;entryX=0.5;entryY=1;entryDx=0;entryDy=0;" edge="1" parent="1" source="kRkp4OT0FkF3uWfnRjnD-5" target="kRkp4OT0FkF3uWfnRjnD-4">
          <mxGeometry width="50" height="50" relative="1" as="geometry">
            <mxPoint x="1990" y="310" as="sourcePoint" />
            <mxPoint x="2040" y="260" as="targetPoint" />
          </mxGeometry>
        </mxCell>
        <mxCell id="kRkp4OT0FkF3uWfnRjnD-29" value="" style="endArrow=none;html=1;rounded=0;exitX=1;exitY=0.5;exitDx=0;exitDy=0;entryX=0.5;entryY=0.5;entryDx=0;entryDy=0;entryPerimeter=0;" edge="1" parent="1" source="kRkp4OT0FkF3uWfnRjnD-3" target="kRkp4OT0FkF3uWfnRjnD-13">
          <mxGeometry width="50" height="50" relative="1" as="geometry">
            <mxPoint x="1990" y="250" as="sourcePoint" />
            <mxPoint x="2040" y="200" as="targetPoint" />
          </mxGeometry>
        </mxCell>
        <mxCell id="kRkp4OT0FkF3uWfnRjnD-30" value="" style="endArrow=none;html=1;rounded=0;entryX=0.5;entryY=0.5;entryDx=0;entryDy=0;entryPerimeter=0;exitX=1;exitY=1;exitDx=0;exitDy=0;" edge="1" parent="1" source="kRkp4OT0FkF3uWfnRjnD-3" target="kRkp4OT0FkF3uWfnRjnD-10">
          <mxGeometry width="50" height="50" relative="1" as="geometry">
            <mxPoint x="1990" y="380" as="sourcePoint" />
            <mxPoint x="2040" y="330" as="targetPoint" />
            <Array as="points">
              <mxPoint x="2140" y="380" />
            </Array>
          </mxGeometry>
        </mxCell>
      </root>
    </mxGraphModel>
  </diagram>
</mxfile>
